<?xml version="1.0" encoding="utf-8"?>
<!-- Generator: Adobe Illustrator 23.0.0, SVG Export Plug-In . SVG Version: 6.00 Build 0)  -->
<svg version="1.1" id="Camada_1" xmlns="http://www.w3.org/2000/svg" xmlns:xlink="http://www.w3.org/1999/xlink" x="0px" y="0px"
	 viewBox="0 0 1500 1500" style="enable-background:new 0 0 1500 1500;" xml:space="preserve">
<style type="text/css">
	.st0{fill:url(#SVGID_1_);stroke:url(#SVGID_2_);stroke-miterlimit:10;}
</style>
<g>
	
		<linearGradient id="SVGID_1_" gradientUnits="userSpaceOnUse" x1="755.1148" y1="394.8569" x2="755.1148" y2="1105.4585" gradientTransform="matrix(1 0 0 -1 0 1500)">
		<stop  offset="0" style="stop-color:#5429CF"/>
		<stop  offset="1" style="stop-color:#8629CF"/>
	</linearGradient>
	
		<linearGradient id="SVGID_2_" gradientUnits="userSpaceOnUse" x1="28.7829" y1="750.1577" x2="1481.4468" y2="750.1577" gradientTransform="matrix(1 0 0 -1 0 1500)">
		<stop  offset="0" style="stop-color:#DCDCDC"/>
		<stop  offset="1" style="stop-color:#000000"/>
	</linearGradient>
	<path class="st0" d="M1078.9,502.5c-65.5,18.9-136.2,3.8-200-20.3s-124.4-56.9-190.2-75.1C623,389,548.5,387.3,490.6,423.3
		c-41.1,25.6-71.9,68.6-118.1,83.2c-50.7,16.1-105.3-6.5-158.4-3.5c-68.4,4-129.5,52.6-159.3,114.4S23.5,751.7,39,818.4
		C53.7,881.7,87.9,946.1,147.8,971c122.2,51,264.2-87.5,386.1-35.9c79.6,33.7,115.1,136.8,197.3,163.6
		c51.5,16.7,107.6-1.7,156.5-25.1c48.8-23.4,96.8-52.5,150.7-58.4c49.1-5.3,98,9.3,144.5,25.8s93.3,35.2,142.5,38.4
		c49.3,3.2,102.9-12.2,132.1-51.9c40.8-55.4,21.1-133.2-4.4-197.1s-55.6-134.6-30.7-198.7c12.1-31.2,37-59.7,33.7-93
		c-4-41.4-48.6-65.3-88.8-76.1c-108.8-29.2-197.7-9.7-297.2,43.1"/>
</g>
</svg>
